HIERARCHY
ROOT Bip001_Pelvis
{
  OFFSET 0.641812 93.1052 -5.31185
  CHANNELS 6 Xposition Yposition Zposition Zrotation Xrotation Yrotation
  JOINT Bip001_Spine
  {
    OFFSET 1.44608e-005 10.4157 -0.0118244
    CHANNELS 3 Zrotation Xrotation Yrotation
    JOINT Bip001_L_Thigh
    {
      OFFSET 11.2582 -10.4157 0.0118432
      CHANNELS 3 Zrotation Xrotation Yrotation
      JOINT Bip001_L_Calf
      {
        OFFSET -0.720717 -44.8687 0.366937
        CHANNELS 3 Zrotation Xrotation Yrotation
        JOINT Bip001_L_Foot
        {
          OFFSET -0.664439 -41.3745 -3.62995
          CHANNELS 3 Zrotation Xrotation Yrotation
          JOINT Bip001_L_Toe0
          {
            OFFSET 0.0541047 -10.4146 13.4033
            CHANNELS 3 Zrotation Xrotation Yrotation
            End Site
            {
              OFFSET -1.04503e-005 0 7.70137
            }
          }
        }
      }
    }
    JOINT Bip001_R_Thigh
    {
      OFFSET -11.2582 -10.4156 0.0118122
      CHANNELS 3 Zrotation Xrotation Yrotation
      JOINT Bip001_R_Calf
      {
        OFFSET 0.72059 -44.8687 0.36676
        CHANNELS 3 Zrotation Xrotation Yrotation
        JOINT Bip001_R_Foot
        {
          OFFSET 0.664321 -41.3745 -3.62979
          CHANNELS 3 Zrotation Xrotation Yrotation
          JOINT Bip001_R_Toe0
          {
            OFFSET -0.05417 -10.4146 13.4033
            CHANNELS 3 Zrotation Xrotation Yrotation
            End Site
            {
              OFFSET -1.04873e-005 0 7.70137
            }
          }
        }
      }
    }
    JOINT Bip001_Spine1
    {
      OFFSET 1.90638e-005 14.8539 1.10727
      CHANNELS 3 Zrotation Xrotation Yrotation
      JOINT Bip001_Spine2
      {
        OFFSET 2.28934e-005 14.7848 -1.7233
        CHANNELS 3 Zrotation Xrotation Yrotation
        JOINT Bip001_Neck
        {
          OFFSET 2.24514e-005 15.6905 -0.498826
          CHANNELS 3 Zrotation Xrotation Yrotation
          JOINT Bip001_L_Clavicle
          {
            OFFSET 6.17691 -0.000591152 0.00852867
            CHANNELS 3 Zrotation Xrotation Yrotation
            JOINT Bip001_L_UpperArm
            {
              OFFSET 11.773 -0.0611878 0.00197697
              CHANNELS 3 Zrotation Xrotation Yrotation
              JOINT Bip001_L_Forearm
              {
                OFFSET 26.4515 0.0817567 -2.1958
                CHANNELS 3 Zrotation Xrotation Yrotation
                JOINT Bip001_L_Hand
                {
                  OFFSET 32.8679 0.156744 1.67111
                  CHANNELS 3 Zrotation Xrotation Yrotation
                  JOINT Bip001_L_Finger0
                  {
                    OFFSET 6.1627 -2.25226 6.01671
                    CHANNELS 3 Zrotation Xrotation Yrotation
                    End Site
                    {
                      OFFSET 4.305 -1.46663 0.618145
                    }
                  }
                  JOINT Bip001_L_Finger1
                  {
                    OFFSET 11.2958 -0.718374 -0.201962
                    CHANNELS 3 Zrotation Xrotation Yrotation
                    End Site
                    {
                      OFFSET 6.31955 -0.405163 -0.0802299
                    }
                  }
                }
              }
            }
          }
          JOINT Bip001_R_Clavicle
          {
            OFFSET -6.17691 -0.000574027 0.00851165
            CHANNELS 3 Zrotation Xrotation Yrotation
            JOINT Bip001_R_UpperArm
            {
              OFFSET -11.773 -0.0611516 0.00194365
              CHANNELS 3 Zrotation Xrotation Yrotation
              JOINT Bip001_R_Forearm
              {
                OFFSET -26.4514 0.0822335 -2.19736
                CHANNELS 3 Zrotation Xrotation Yrotation
                JOINT Bip001_R_Hand
                {
                  OFFSET -32.8679 0.156816 1.67144
                  CHANNELS 3 Zrotation Xrotation Yrotation
                  JOINT Bip001_R_Finger0
                  {
                    OFFSET -6.16272 -2.25224 6.01669
                    CHANNELS 3 Zrotation Xrotation Yrotation
                    End Site
                    {
                      OFFSET -4.30501 -1.46661 0.618133
                    }
                  }
                  JOINT Bip001_R_Finger1
                  {
                    OFFSET -11.2958 -0.718344 -0.201994
                    CHANNELS 3 Zrotation Xrotation Yrotation
                    End Site
                    {
                      OFFSET -6.31955 -0.405146 -0.0802474
                    }
                  }
                }
              }
            }
          }
          JOINT Bip001_Head
          {
            OFFSET 1.11782e-005 11.4912 2.09908
            CHANNELS 3 Zrotation Xrotation Yrotation
            End Site
            {
              OFFSET 2.95144e-005 21.2823 -2.83069e-005
            }
          }
        }
      }
    }
  }
}
MOTION
Frames:	5
Frame Time:	0.0333333
0.641812 93.1052 -5.31185 1.03145 -4.95163 0.0306535 -0.263186 3.82483 1.02248 -2.8057 -8.93133 -10.5961 0.11637 23.4395 -0.256217 -0.444569 -10.9379 8.09883 -1.05719e-008 -2.13557e-007 -6.37503e-010 -0.904589 -11.8938 1.99495 -0.34782 23.9355 -0.272823 0.0933371 -7.04099 -3.3472 -1.06655e-007 -7.2279e-010 -3.54643e-009 0.388476 7.61861 1.91155 0.38891 7.61987 1.90655 2.29602 4.44752 10.8554 -28.9885 4.97736 -18.7992 -43.5373 26.5654 -3.33252 -5.52107 4.82343 -78.7696 -19.4425 14.3729 11.3148 3.18055e-015 1.59028e-015 -1.59028e-015 6.36111e-015 3.18056e-015 -2.38542e-015 18.2852 -7.39889 -11.2511 58.3638 31.3077 -4.44253 5.4066 4.25652 73.3973 15.5283 16.0401 -9.81332 -3.53112e-031 -6.36111e-015 -3.18055e-015 -3.18055e-015 -3.18056e-015 -3.18055e-015 -6.24096 -22.3035 16.521 
0.649797 93.1074 -5.30302 1.02344 -5.02407 -0.0611491 -0.261612 3.82486 0.998888 -2.78299 -8.83729 -10.4603 0.116234 23.4115 -0.256163 -0.433856 -10.9774 8.12563 -1.05719e-008 -2.13557e-007 -6.37503e-010 -0.905837 -11.8254 2.01993 -0.347507 23.9475 -0.273464 0.100655 -7.06483 -3.27668 -1.06655e-007 -7.2279e-010 -3.54643e-009 0.366149 7.61881 1.86481 0.367151 7.62007 1.85993 2.53164 4.50617 10.5814 -29.2673 4.82925 -18.5348 -43.691 26.5452 -3.05337 -5.50712 4.84012 -78.9349 -19.1854 14.4824 11.319 3.18055e-015 -1.59028e-015 -1.59028e-015 3.18055e-015 3.18056e-015 -1.59028e-015 18.1764 -7.32496 -10.9201 58.2681 31.001 -4.37203 5.41043 4.25142 73.3458 15.7757 15.9767 -9.87205 -3.18055e-015 9.54166e-015 6.36111e-015 -3.18055e-015 3.18056e-015 4.77083e-015 -6.51203 -21.9648 15.9956 
0.663794 93.0989 -5.32025 0.997542 -5.08556 -0.189983 -0.262832 3.82484 1.01717 -2.78153 -8.80181 -10.4145 0.116603 23.4874 -0.25631 -0.436488 -10.9928 8.16921 -1.05719e-008 -2.13557e-007 -6.37503e-010 -0.900387 -11.7909 2.10053 -0.346874 23.9419 -0.275086 0.108328 -7.03455 -3.22823 -1.06655e-007 -7.2279e-010 -3.54643e-009 0.410349 7.61868 1.89537 0.411052 7.61994 1.89042 2.44544 4.60684 10.2438 -29.4144 4.61715 -18.276 -43.5093 26.3375 -3.14529 -5.50875 4.83819 -78.9156 -19.3369 14.4109 11.3493 -4.41391e-031 -6.36111e-015 -3.97569e-015 -3.18055e-015 -6.36111e-015 -1.59028e-015 18.1986 -7.31293 -10.5775 58.362 30.8294 -4.44909 5.40578 4.25761 73.4083 15.8203 16.0201 -10.0158 3.18055e-015 3.18055e-015 -0 3.18055e-015 3.18056e-015 -0 -6.43244 -21.8258 15.1489 
0.675023 93.0832 -5.34483 0.971088 -5.13782 -0.331615 -0.260827 3.82482 1.03381 -2.7881 -8.7911 -10.4056 0.117156 23.6006 -0.256531 -0.416093 -11.1557 8.33731 -1.05719e-008 -2.13557e-007 -6.37503e-010 -0.894789 -11.8102 2.0685 -0.346779 23.9997 -0.274696 0.121136 -6.98974 -3.14385 -1.06655e-007 -7.2279e-010 -3.54643e-009 0.430673 7.62241 1.92575 0.431757 7.62367 1.92062 2.37324 4.66548 9.86055 -29.4951 4.39601 -17.9561 -43.3994 26.2913 -3.21511 -5.51039 4.83622 -78.8961 -19.4061 14.3526 11.3702 -6.62086e-032 4.77083e-015 7.95139e-016 -1.32417e-031 3.18056e-015 2.38542e-015 18.2521 -7.25129 -10.1688 58.3931 30.7055 -4.50766 5.40162 4.26309 73.4636 15.9728 16.1173 -10.1289 -6.36111e-015 -3.18055e-015 6.36111e-015 -9.54166e-015 0 3.18055e-015 -5.75562 -21.2527 14.0236 
0.701188 93.0667 -5.3797 0.950765 -5.14784 -0.428795 -0.240724 3.82481 1.03451 -2.83181 -8.86263 -10.4387 0.117813 23.7348 -0.256794 -0.434202 -11.1591 8.47977 -1.05719e-008 -2.13557e-007 -6.37503e-010 -0.911121 -11.8568 2.09741 -0.349042 24.0312 -0.2688 0.145132 -6.98142 -3.13363 -1.06655e-007 -7.2279e-010 -3.54643e-009 0.474511 7.6367 1.92447 0.475141 7.63799 1.91937 2.04627 4.40009 9.5058 -29.283 4.43954 -17.5615 -43.2787 25.9949 -3.34115 -5.5126 4.83358 -78.87 -19.6893 14.2554 11.4541 2.64834e-031 3.18055e-015 -4.77083e-015 2.20695e-032 1.59028e-015 -7.95139e-016 18.5436 -6.9216 -9.85574 58.2951 30.6711 -4.42438 5.40164 4.26315 73.464 16.0448 16.3331 -10.1456 6.36111e-015 0 4.77083e-015 3.18055e-015 0 1.59028e-015 -5.30834 -20.424 12.7379 
